<?xml version="1.0" encoding="UTF-8"?>
<svg width="19px" height="17px" viewBox="0 0 19 17" version="1.1" xmlns="http://www.w3.org/2000/svg" xmlns:xlink="http://www.w3.org/1999/xlink">
    <title>justify 2</title>
    <g id="Page-1" stroke="none" stroke-width="1" fill="none" fill-rule="evenodd">
        <g id="Cart---Mobile" transform="translate(-34.000000, -30.000000)" fill="#4F4B47">
            <g id="Group" transform="translate(34.000000, 30.000000)">
                <path d="M0.853448276,0 L17.6465517,0 C18.1178999,0 18.5,0.410405639 18.5,0.916666667 C18.5,1.42292769 18.1178999,1.83333333 17.6465517,1.83333333 L0.853448276,1.83333333 C0.382101802,1.83333333 0,1.42292769 0,0.916666667 C0,0.410405639 0.382101802,0 0.853448276,0 Z" id="Vector-605-(Stroke)"></path>
                <path d="M0.853448276,7.33333333 L17.6465517,7.33333333 C18.1178999,7.33333333 18.5,7.74373897 18.5,8.25 C18.5,8.75626103 18.1178999,9.16666667 17.6465517,9.16666667 L0.853448276,9.16666667 C0.382101802,9.16666667 0,8.75626103 0,8.25 C0,7.74373897 0.382101802,7.33333333 0.853448276,7.33333333 Z" id="Vector-606-(Stroke)"></path>
                <path d="M0.853448276,14.6666667 L17.6465517,14.6666667 C18.1178999,14.6666667 18.5,15.0770723 18.5,15.5833333 C18.5,16.0895944 18.1178999,16.5 17.6465517,16.5 L0.853448276,16.5 C0.382101802,16.5 0,16.0895944 0,15.5833333 C0,15.0770723 0.382101802,14.6666667 0.853448276,14.6666667 Z" id="Vector-608-(Stroke)"></path>
            </g>
        </g>
    </g>
</svg>