<?xml version="1.0" encoding="UTF-8"?>
<svg width="20px" height="21px" viewBox="0 0 20 21" version="1.1" xmlns="http://www.w3.org/2000/svg" xmlns:xlink="http://www.w3.org/1999/xlink">
    <title>shopping_bag</title>
    <g id="Page-1" stroke="none" stroke-width="1" fill="none" fill-rule="evenodd">
        <g id="Cart---Mobile" transform="translate(-359.000000, -27.000000)" fill="#4F4B47">
            <g id="shopping_bag" transform="translate(359.000000, 27.000000)">
                <path d="M9.99995376,0 C12.1568453,0 13.9053514,1.73418819 13.9053514,3.87341772 L13.9053514,3.87341772 L15.5734227,3.87341772 C17.1490872,3.87341772 18.4781754,5.03710533 18.6736142,6.58780126 L18.6736142,6.58780126 L19.9754134,16.9169147 C20.2085081,18.7664043 18.7544919,20.4 16.8752219,20.4 L16.8752219,20.4 L3.12477748,20.4 C1.24550623,20.4 -0.208508203,18.7664043 0.0245866962,16.9169147 L0.0245866962,16.9169147 L1.32638586,6.58780077 C1.52182322,5.03710484 2.85091119,3.87341772 4.42657769,3.87341772 L4.42657769,3.87341772 L6.09455611,3.87341772 C6.09455611,1.73418819 7.8430622,0 9.99995376,0 Z M6.09455611,5.42278481 L4.42657769,5.42278481 C3.63874394,5.42278481 2.97420058,6.00462837 2.87648196,6.77997634 L2.87648196,6.77997634 L1.57468249,17.1090903 C1.4581349,18.033836 2.18514297,18.8506329 3.12477748,18.8506329 L3.12477748,18.8506329 L16.8752219,18.8506329 C17.8148569,18.8506329 18.541865,18.033836 18.4253176,17.1090903 L18.4253176,17.1090903 L17.1235184,6.77997634 C17.0258001,6.00462886 16.3612569,5.42278481 15.5734227,5.42278481 L15.5734227,5.42278481 L13.9053514,5.42278481 L13.9053514,6.9721519 C13.9053514,7.3999979 13.5556498,7.74683544 13.1242719,7.74683544 C12.692894,7.74683544 12.3431924,7.3999979 12.3431924,6.9721519 L12.3431924,6.9721519 L12.3431924,5.42278481 L7.65671517,5.42278481 L7.65671517,6.9721519 C7.65671517,7.3999979 7.30701405,7.74683544 6.87563564,7.74683544 C6.44425722,7.74683544 6.09455611,7.3999979 6.09455611,6.9721519 L6.09455611,6.9721519 L6.09455611,5.42278481 Z M9.99995376,1.54936709 C8.70581902,1.54936709 7.65671517,2.5898802 7.65671517,3.87341772 L12.3431924,3.87341772 C12.3431924,2.5898802 11.2940885,1.54936709 9.99995376,1.54936709 Z" id="Combined-Shape"></path>
            </g>
        </g>
    </g>
</svg>